<svg width="15" height="15" viewBox="0 0 15 15" fill="none" xmlns="http://www.w3.org/2000/svg">
<g clip-path="url(#clip0_0_610)">
<path d="M7.43842 9.2521C5.34077 9.2521 4.61889 6.63648 4.25561 4.62554C4.2392 4.53648 4.27905 4.44507 4.35405 4.39351L4.92827 4.01851C4.97045 3.99507 5.09467 3.89898 5.17436 3.24741C5.18374 3.17007 5.23295 3.1021 5.30327 3.06929C5.37358 3.03648 5.45561 3.04116 5.52358 3.08335C6.31577 3.5896 7.93061 3.86851 8.22592 3.43023C8.32202 3.30366 8.39702 3.15132 8.47202 3.00366C8.51889 2.90991 8.56577 2.82085 8.6103 2.74585C8.68999 2.6146 8.82124 2.52319 8.97358 2.49741C9.12592 2.47163 9.28295 2.51616 9.40014 2.61694C9.68139 2.85601 9.90874 3.30366 10.1103 4.01616L10.5556 4.31148C10.6751 4.33023 10.7595 4.44038 10.7455 4.55991C10.4314 7.42866 9.41655 9.00132 7.72905 9.23569C7.63061 9.24741 7.53217 9.2521 7.43842 9.2521ZM4.73139 4.69351C5.28686 7.64194 6.22202 8.94038 7.6728 8.78569C9.11186 8.58413 9.96499 7.23882 10.2744 4.67241L9.7892 4.34898C9.74467 4.31851 9.70952 4.27163 9.69545 4.22007C9.51733 3.56851 9.31811 3.14663 9.10483 2.96382C9.08373 2.94507 9.0603 2.94507 9.04858 2.94741C9.03452 2.94976 9.01342 2.95679 9.0017 2.98023C8.96186 3.04819 8.92202 3.12788 8.87983 3.20991C8.80014 3.36694 8.71108 3.54507 8.59858 3.69507C8.14155 4.37476 6.51264 4.08179 5.57983 3.63179C5.49545 4.06773 5.3642 4.30679 5.16264 4.41226L4.73139 4.69351Z" fill="#DF3F01"/>
<path d="M4.48183 4.81217C4.36699 4.81217 4.26855 4.72545 4.25683 4.60827C3.96152 1.82858 4.88496 0.302798 7.00371 0.07311C7.77012 -0.0815775 8.90449 -0.00657747 9.66855 0.52311C10.0693 0.802016 10.3295 1.18405 10.4256 1.63639C10.6178 1.81217 10.7256 2.07702 10.7443 2.42624L10.749 4.53795C10.749 4.66452 10.6482 4.7653 10.5217 4.7653C10.3975 4.7653 10.2943 4.66452 10.2943 4.53795L10.2896 2.43795C10.2756 2.20124 10.2076 2.03249 10.0857 1.94342C10.0365 1.90827 10.0037 1.85436 9.99433 1.79342C9.93574 1.42545 9.73887 1.12311 9.41074 0.895766C8.75918 0.443423 7.74433 0.384829 7.07402 0.520766C5.21074 0.724673 4.44199 2.0442 4.70918 4.56139C4.72324 4.68561 4.63183 4.79811 4.50762 4.81217C4.49824 4.81217 4.48887 4.81217 4.48183 4.81217Z" fill="#DF3F01"/>
<path d="M7.49961 11.0473C6.95352 11.0473 6.44023 10.834 6.05117 10.4473C5.66445 10.0605 5.45117 9.54492 5.45117 8.99648V8.03789C5.45117 7.91133 5.55195 7.81055 5.67852 7.81055C5.80508 7.81055 5.90586 7.91133 5.90586 8.03789V8.99648C5.90586 9.42305 6.07227 9.82383 6.37461 10.1238C6.67695 10.4262 7.07539 10.5926 7.49961 10.5926C8.37852 10.5926 9.0957 9.87773 9.0957 8.99648V8.09648C9.0957 7.96992 9.19648 7.86914 9.32305 7.86914C9.44961 7.86914 9.55039 7.96992 9.55039 8.09648V8.99648C9.55039 10.1285 8.6293 11.0473 7.49961 11.0473Z" fill="#DF3F01"/>
<path d="M7.57897 15.0005C4.97741 15.0005 2.35006 14.6747 0.451625 14.0255C0.357875 13.9927 0.294594 13.9036 0.296938 13.8028C0.320375 13.0809 0.477407 12.4059 0.763344 11.7989C1.09381 11.0958 1.67506 10.5309 2.40163 10.2075L5.58444 8.78954C5.69928 8.73798 5.83288 8.78954 5.88444 8.90438C5.936 9.01923 5.88444 9.15282 5.76959 9.20438L2.58678 10.6224C1.961 10.9013 1.45944 11.3888 1.1735 11.9934C0.936782 12.4974 0.7985 13.0528 0.758657 13.6505C4.44538 14.8528 10.7477 14.8528 14.2376 13.6528C14.2001 13.0552 14.0594 12.4974 13.8227 11.9934C13.5391 11.3888 13.0376 10.9013 12.4094 10.6224L9.22663 9.20438C9.11178 9.15282 9.06022 9.01923 9.11178 8.90438C9.16335 8.78954 9.29694 8.73798 9.41178 8.78954L12.5946 10.2075C13.3212 10.5309 13.9024 11.0958 14.2329 11.7989C14.5188 12.4059 14.6758 13.0786 14.6993 13.8028C14.7016 13.9013 14.643 13.9903 14.5493 14.0231C12.7587 14.6747 10.1829 15.0005 7.57897 15.0005Z" fill="#DF3F01"/>
<path d="M3.11406 14.6609C2.9875 14.6609 2.88672 14.5602 2.88672 14.4336V13.0672C2.88672 12.9406 2.9875 12.8398 3.11406 12.8398C3.24063 12.8398 3.34141 12.9406 3.34141 13.0672V14.4336C3.34141 14.5602 3.23828 14.6609 3.11406 14.6609Z" fill="#DF3F01"/>
<path d="M11.5125 14.7359C11.3859 14.7359 11.2852 14.6352 11.2852 14.5086V13.0672C11.2852 12.9406 11.3859 12.8398 11.5125 12.8398C11.6391 12.8398 11.7398 12.9406 11.7398 13.0672V14.5086C11.7398 14.6352 11.6367 14.7359 11.5125 14.7359Z" fill="#DF3F01"/>
</g>
<defs>
<clipPath id="clip0_0_610">
<rect width="15" height="15" fill="white"/>
</clipPath>
</defs>
</svg>
