<svg width="30" height="30" viewBox="0 0 30 30" fill="none" xmlns="http://www.w3.org/2000/svg">
<path opacity="0.5" d="M26.25 3.75L18.75 11.25M18.75 11.25V5M18.75 11.25H25M6.25 3.75C4.86929 3.75 3.75 4.86929 3.75 6.25V7.5C3.75 17.8553 12.1447 26.25 22.5 26.25H23.75C25.1307 26.25 26.25 25.1307 26.25 23.75V19.6509C26.25 19.1129 25.9057 18.6352 25.3953 18.4651L19.7785 16.5928C19.1883 16.3961 18.5434 16.6633 18.2652 17.2197L16.8544 20.0412C13.7985 18.6634 11.3366 16.2015 9.95876 13.1456L12.7803 11.7348C13.3367 11.4566 13.6039 10.8117 13.4072 10.2215L11.5349 4.60472C11.3648 4.09429 10.8871 3.75 10.3491 3.75H6.25Z" stroke="white" stroke-width="2" stroke-linecap="round" stroke-linejoin="round"/>
</svg>
