<svg width="14" height="10" viewBox="0 0 14 10" fill="none" xmlns="http://www.w3.org/2000/svg">
<path d="M13.8766 4.70233L9.6343 0.48082C9.4819 0.303745 9.21409 0.283102 9.03614 0.434782C8.85819 0.586426 8.83744 0.852928 8.98987 1.03C9.00409 1.04651 9.01955 1.06193 9.03614 1.07604L12.553 4.57989L0.424222 4.57989C0.189944 4.57989 0 4.7689 0 5.00206C0 5.23522 0.189944 5.4242 0.424222 5.4242L12.553 5.4242L9.03614 8.9238C8.85819 9.07544 8.83744 9.34194 8.98987 9.51902C9.1423 9.69609 9.41008 9.71674 9.58803 9.56505C9.60462 9.55091 9.62011 9.53553 9.6343 9.51902L13.8767 5.29751C14.0411 5.13292 14.0411 4.86699 13.8766 4.70233Z" fill="#051137"/>
</svg>
