<svg width="66" height="66" viewBox="0 0 66 66" fill="none" xmlns="http://www.w3.org/2000/svg">
<g clip-path="url(#clip0_116_61)">
<mask id="mask0_116_61" style="mask-type:luminance" maskUnits="userSpaceOnUse" x="0" y="0" width="66" height="66">
<path d="M66 0H0V66H66V0Z" fill="white"/>
</mask>
<g mask="url(#mask0_116_61)">
<path d="M60.1839 39.3457C59.8065 38.9683 59.1981 38.9719 58.8204 39.3495C58.4428 39.727 58.4465 40.3428 58.8241 40.7205C59.0128 40.9092 59.2603 41.0036 59.5077 41.0036C59.7551 41.0036 60.0026 40.9092 60.1913 40.7205C60.5689 40.3428 60.5689 39.7308 60.1913 39.3532L60.1839 39.3457Z" fill="#0B0A0A" fill-opacity="0.8"/>
<path d="M54.1029 39.3431C53.7237 38.9669 53.1152 38.9732 52.7394 39.3525C52.3634 39.7316 52.3697 40.3475 52.749 40.7234C52.9374 40.9104 53.1836 41.0037 53.4297 41.0037C53.6785 41.0037 53.9272 40.9084 54.1163 40.7177C54.4923 40.3386 54.4896 39.7264 54.1105 39.3505L54.1029 39.3431Z" fill="#0B0A0A" fill-opacity="0.8"/>
<path d="M48.0257 39.3467C47.6483 38.9693 47.0399 38.9729 46.6622 39.3504C46.2846 39.728 46.2883 40.3438 46.6659 40.7215C46.8546 40.9102 47.1021 41.0046 47.3495 41.0046C47.5969 41.0046 47.8444 40.9102 48.0331 40.7215C48.4107 40.3438 48.4107 39.7317 48.0331 39.3542L48.0257 39.3467Z" fill="#0B0A0A" fill-opacity="0.8"/>
<path d="M41.9457 39.3457C41.5682 38.9683 40.9598 38.9719 40.5821 39.3495C40.2045 39.727 40.2083 40.3428 40.5858 40.7205C40.7746 40.9092 41.0221 41.0036 41.2694 41.0036C41.5168 41.0036 41.7643 40.9092 41.953 40.7205C42.3306 40.3428 42.3306 39.7308 41.953 39.3532L41.9457 39.3457Z" fill="#0B0A0A" fill-opacity="0.8"/>
<path d="M35.8675 39.3457C35.4901 38.9683 34.8817 38.9719 34.504 39.3495C34.1264 39.727 34.1301 40.3428 34.5077 40.7205C34.6964 40.9092 34.9439 41.0036 35.1913 41.0036C35.4387 41.0036 35.6862 40.9092 35.8749 40.7205C36.2525 40.3428 36.2525 39.7308 35.8749 39.3532L35.8675 39.3457Z" fill="#0B0A0A" fill-opacity="0.8"/>
<path d="M29.7874 39.3467C29.41 38.9693 28.8015 38.9729 28.4238 39.3504C28.0463 39.728 28.05 40.3438 28.4276 40.7215C28.6163 40.9102 28.8638 41.0046 29.1112 41.0046C29.3585 41.0046 29.606 40.9102 29.7948 40.7215C30.1723 40.3438 30.1723 39.7317 29.7948 39.3542L29.7874 39.3467Z" fill="#0B0A0A" fill-opacity="0.8"/>
<path d="M57.2666 34.868C56.9699 34.4242 56.3694 34.3049 55.9256 34.6015C55.4818 34.8984 55.3624 35.4987 55.6593 35.9426L55.6667 35.9538C55.8531 36.2326 56.1593 36.3834 56.4714 36.3834C56.6561 36.3834 56.8428 36.3306 57.0079 36.2202C57.4517 35.9233 57.5711 35.323 57.2742 34.8792L57.2666 34.868Z" fill="#0B0A0A" fill-opacity="0.8"/>
<path d="M51.0644 34.7225C50.6869 34.3451 50.0747 34.3451 49.6972 34.7225C49.3197 35.1002 49.3197 35.7123 49.6972 36.0898L49.7085 36.1011C49.8972 36.2898 50.1447 36.3841 50.392 36.3841C50.6394 36.3841 50.8869 36.2898 51.0756 36.1011C51.4532 35.7234 51.4532 35.1113 51.0756 34.7337L51.0644 34.7225Z" fill="#0B0A0A" fill-opacity="0.8"/>
<path d="M44.9769 34.7149C44.5993 34.3373 43.9909 34.3412 43.6133 34.7186C43.2358 35.0962 43.2395 35.7119 43.6171 36.0896C43.8058 36.2784 44.0533 36.3727 44.3007 36.3727C44.548 36.3727 44.7955 36.2784 44.9843 36.0896C45.3618 35.7119 45.3618 35.0999 44.9843 34.7223L44.9769 34.7149Z" fill="#0B0A0A" fill-opacity="0.8"/>
<path d="M38.8969 34.7149C38.5194 34.3373 37.911 34.3412 37.5333 34.7186C37.1556 35.096 37.1595 35.7119 37.5371 36.0896C37.7258 36.2784 37.9733 36.3727 38.2206 36.3727C38.468 36.3727 38.7155 36.2784 38.9042 36.0896C39.2818 35.7119 39.2818 35.0999 38.9042 34.7223L38.8969 34.7149Z" fill="#0B0A0A" fill-opacity="0.8"/>
<path d="M32.9329 34.8527C32.6379 34.4077 32.038 34.2858 31.5929 34.5811C31.1478 34.8761 31.0262 35.476 31.3213 35.9211L31.3288 35.9323C31.5148 36.2131 31.8221 36.3651 32.1355 36.3651C32.3189 36.3651 32.5044 36.313 32.6687 36.2039C33.1139 35.909 33.2354 35.3091 32.9403 34.8639L32.9329 34.8527Z" fill="#0B0A0A" fill-opacity="0.8"/>
<path d="M46.7925 31.5974C46.9586 31.7096 47.1468 31.7634 47.3332 31.7634C47.6433 31.7634 47.9482 31.6144 48.135 31.338L48.1424 31.3269C48.4415 30.8845 48.3253 30.2835 47.8831 29.9845C47.4408 29.6852 46.8397 29.8014 46.5406 30.2438L46.5332 30.2549C46.2341 30.6973 46.3502 31.2983 46.7925 31.5974Z" fill="#0B0A0A" fill-opacity="0.8"/>
<path d="M40.7175 31.5993C40.8829 31.71 41.07 31.7631 41.2551 31.7631C41.5666 31.7631 41.8725 31.6128 42.0589 31.3346L42.0664 31.3235C42.3638 30.8801 42.2453 30.2794 41.8018 29.9821C41.3582 29.685 40.7576 29.8032 40.4604 30.2468L40.4529 30.2579C40.1556 30.7013 40.2741 31.3019 40.7175 31.5993Z" fill="#0B0A0A" fill-opacity="0.8"/>
<path d="M63.5255 45.829C64.89 45.829 66 44.7189 66 43.3544V42.0327C66 36.8523 63.6125 32.5088 59.0954 29.4719C55.1785 26.838 49.9263 25.3877 44.3061 25.3877C44.1313 25.3877 43.957 25.3891 43.783 25.392L44.3265 21.4009C45.6781 21.342 46.7602 20.2272 46.7602 18.8613V16.6461C46.7602 15.2406 45.6185 14.0971 44.215 14.0971H27.249V8.16778L34.9373 6.16664C36.604 5.72965 37.6085 4.01725 37.1762 2.3474C36.7402 0.67884 35.0261 -0.327659 33.3537 0.10379L23.3274 2.71749C21.9268 3.08384 20.9858 4.30201 20.9858 5.74885V14.097H2.54525C1.14172 14.097 0 15.2405 0 16.6459V18.8612C0 20.2271 1.0823 21.3419 2.43388 21.4008L8.08732 62.8961C8.33546 64.7213 9.66023 65.9962 11.3088 65.9962H26.7103H61.9023C64.1618 65.9962 66 64.1578 66 61.8983V59.4524C66 58.5415 65.2574 57.8006 64.3445 57.8006H62.5191V55.1604C64.1639 54.7019 65.3745 53.1901 65.3745 51.3997C65.3745 49.6235 64.1807 48.1219 62.5538 47.6524C62.7776 47.0985 62.9314 46.4885 63.0059 45.8292L63.5255 45.829ZM22.9193 5.74885C22.9193 5.18643 23.2714 4.73088 23.8158 4.58844L33.8391 1.97538C34.4802 1.80999 35.1382 2.1962 35.3047 2.83415C35.4701 3.47288 35.0852 4.12876 34.4484 4.29582L26.0385 6.48478C25.6125 6.59551 25.3153 6.98029 25.3153 7.42038V14.0968H22.9191L22.9193 5.74885ZM4.38616 21.4064H21.9264C22.4604 21.4064 22.8932 20.9737 22.8932 20.4397C22.8932 19.9056 22.4604 19.4729 21.9264 19.4729H2.54525C2.21371 19.4729 1.93359 19.1927 1.93359 18.8612V16.6459C1.93359 16.3123 2.21371 16.0305 2.54525 16.0305H44.2151C44.5466 16.0305 44.8268 16.3125 44.8268 16.6459V18.8612C44.8268 19.1927 44.5466 19.4729 44.2151 19.4729H26.5204C25.9865 19.4729 25.5536 19.9056 25.5536 20.4397C25.5536 20.9737 25.9865 21.4064 26.5204 21.4064H42.3743L41.8191 25.4844C37.1492 25.8475 32.8497 27.2309 29.5172 29.4719C27.4251 30.8785 25.7907 32.566 24.6379 34.4866L6.97512 40.4097L4.38616 21.4064ZM7.15069 41.6976C7.15675 41.7158 7.15842 41.7343 7.15829 41.753L7.15069 41.6976ZM7.24092 42.3599L23.4831 36.913C22.9072 38.5033 22.6125 40.2163 22.6125 42.0327V43.3544C22.6125 44.7189 23.7226 45.829 25.0871 45.829H25.6067C25.6811 46.4885 25.8349 47.0984 26.0585 47.6524C24.4316 48.122 23.2379 49.6236 23.2379 51.3997C23.2379 51.7293 23.2796 52.0491 23.3568 52.355L9.26771 57.2363L7.24092 42.3599ZM23.2329 64.0626H11.3088C10.5409 64.0626 10.0998 63.3458 10.0033 62.6353L9.53391 59.1905L24.3028 54.0736C24.784 54.5842 25.3992 54.9669 26.0933 55.1604V57.8006H24.268C23.3551 57.8006 22.6125 58.5415 22.6125 59.4524V61.8983C22.6125 62.6924 22.8403 63.434 23.2329 64.0626ZM64.0664 59.7341V61.8983C64.0664 63.0918 63.0956 64.0626 61.9023 64.0626H26.7103C25.517 64.0626 24.5461 63.0918 24.5461 61.8983V59.7341H43.4444C43.9783 59.7341 44.4112 59.3014 44.4112 58.7673C44.4112 58.2333 43.9783 57.8006 43.4444 57.8006H28.0269V55.3039H60.5856V57.8006H47.9937C47.4598 57.8006 47.0269 58.2333 47.0269 58.7673C47.0269 59.3014 47.4598 59.7341 47.9937 59.7341H64.0664ZM63.441 51.3997C63.441 52.4864 62.5587 53.3703 61.4742 53.3703H27.1384C26.0539 53.3703 25.1717 52.4864 25.1717 51.3997C25.1717 50.3151 26.0539 49.4327 27.1384 49.4327H27.2177C27.6405 49.8572 28.1356 50.2046 28.7018 50.4574C30.4901 51.256 32.6514 50.9875 34.2175 49.8082C35.1881 50.6715 36.3713 51.1416 37.5959 51.1416C38.8114 51.1416 39.9858 50.6786 40.9522 49.8278C41.9179 50.6763 43.0908 51.1379 44.3044 51.1379C45.5189 51.1379 46.6918 50.6774 47.6584 49.8294C48.6247 50.6793 49.8 51.1418 51.0168 51.1418C52.2425 51.1418 53.4265 50.671 54.3953 49.8086C55.9607 50.9879 58.1201 51.256 59.9083 50.4582C60.4752 50.2053 60.9709 49.8576 61.3942 49.4329H61.4742C62.5587 49.4327 63.441 50.315 63.441 51.3997ZM27.5563 45.829H61.0563C60.8499 47.2183 60.181 48.2191 59.1207 48.6922C57.8995 49.2368 56.3438 48.9857 55.3304 48.0759C54.4678 47.3152 53.779 47.6842 53.3504 48.131C52.6897 48.8256 51.8609 49.208 51.0168 49.208C50.1703 49.208 49.3403 48.8255 48.6795 48.131C48.6631 48.1138 48.646 48.097 48.6285 48.081C47.7639 47.2971 47.0699 47.6747 46.642 48.1272C45.9716 48.8318 45.1633 49.2042 44.3046 49.2042C43.4605 49.2042 42.6316 48.8217 41.9729 48.1292C41.5452 47.6769 40.8531 47.3005 39.9856 48.0768C39.9662 48.094 39.9477 48.112 39.9297 48.1309C39.269 48.8255 38.4402 49.2079 37.5962 49.2079C36.7521 49.2079 35.9233 48.8253 35.2596 48.1278C34.831 47.6809 34.1393 47.31 33.2762 48.0812C32.2676 48.9856 30.7108 49.2365 29.4903 48.6917C28.4307 48.2188 27.7625 47.218 27.5563 45.829ZM25.0871 43.8954C24.7888 43.8954 24.5461 43.6527 24.5461 43.3544V42.0327C24.5461 36.3392 27.836 32.932 30.5959 31.0764C34.1973 28.6548 39.0663 27.3213 44.3061 27.3213C49.5459 27.3213 54.4151 28.6548 58.0164 31.0764C60.7765 32.932 64.0664 36.3392 64.0664 42.0326V43.3543C64.0664 43.6526 63.8238 43.8953 63.5255 43.8953L25.0871 43.8954Z" fill="#0B0A0A" fill-opacity="0.8"/>
</g>
</g>
<defs>
<clipPath id="clip0_116_61">
<rect width="66" height="66" fill="white"/>
</clipPath>
</defs>
</svg>
