<svg width="66" height="66" viewBox="0 0 66 66" fill="none" xmlns="http://www.w3.org/2000/svg">
<g opacity="0.8" clip-path="url(#clip0_0_1006)">
<path d="M52.5293 49.9899L39.123 45.0244V41.1327C40.3266 40.2006 41.3009 39.0054 41.9712 37.6387C42.6415 36.2719 42.9901 34.7698 42.9902 33.2475V32.5489H43.2055C44.4021 32.5489 45.5497 32.0735 46.3958 31.2274C47.2419 30.3813 47.7172 29.2337 47.7172 28.0372C47.7162 27.1542 47.3649 26.3077 46.7404 25.6834C46.1159 25.0592 45.2693 24.7082 44.3863 24.7075H42.9902V21.9141C43.0921 21.4281 43.1952 20.5632 43.3048 19.6505C43.3679 19.122 43.453 18.4053 43.5239 17.9373C44.9581 17.4399 46.1981 16.5013 47.0662 15.2559C47.9343 14.0106 48.386 12.5225 48.3566 11.0048C48.2702 7.13758 44.9909 3.98067 41.0476 3.96649C40.6802 3.96699 40.3132 3.99284 39.9493 4.04383C39.2517 2.81569 38.2411 1.79436 37.0204 1.08385C35.7997 0.373338 34.4124 -0.000976562 33 -0.000976562C31.5876 -0.000976562 30.2003 0.373338 28.9796 1.08385C27.7589 1.79436 26.7483 2.81569 26.0507 4.04383C25.6869 3.99216 25.3198 3.96631 24.9524 3.96649C21.0091 3.98067 17.7336 7.13758 17.6434 11.0048C17.614 12.5225 18.0657 14.0106 18.9338 15.2559C19.8019 16.5013 21.0419 17.4399 22.4761 17.9373C22.547 18.4053 22.6321 19.122 22.6952 19.6505C22.8048 20.5632 22.9079 21.4281 23.0098 21.9141V24.7075H21.6137C20.7307 24.7082 19.8841 25.0592 19.2596 25.6834C18.6351 26.3077 18.2838 27.1542 18.2828 28.0372C18.2828 29.2337 18.7581 30.3813 19.6042 31.2274C20.4503 32.0735 21.5979 32.5489 22.7945 32.5489H23.0098V33.2475C23.0099 34.7698 23.3585 36.2719 24.0288 37.6387C24.6991 39.0054 25.6734 40.2006 26.877 41.1327V45.0244L13.4707 49.9899C12.3001 50.4274 11.2906 51.2113 10.5766 52.237C9.86272 53.2627 9.47831 54.4817 9.47461 55.7314V65.0332C9.47461 65.2897 9.57647 65.5356 9.75778 65.7169C9.93909 65.8982 10.185 66 10.4414 66H55.5586C55.815 66 56.0609 65.8982 56.2422 65.7169C56.4235 65.5356 56.5254 65.2897 56.5254 65.0332V55.7314C56.5217 54.4817 56.1373 53.2627 55.4234 52.237C54.7094 51.2113 53.6999 50.4274 52.5293 49.9899ZM24.9434 22.7739H41.0566V24.7075H24.9434V22.7739ZM45.7836 28.0372C45.7836 28.7209 45.512 29.3767 45.0285 29.8602C44.545 30.3437 43.8893 30.6153 43.2055 30.6153H42.9902V26.6411H44.3863C44.7566 26.6414 45.1116 26.7886 45.3735 27.0503C45.6355 27.312 45.783 27.6669 45.7836 28.0372ZM19.5757 11.0486C19.6402 8.21911 22.0546 5.9104 24.9601 5.90008C25.1815 5.90168 25.4027 5.91502 25.6227 5.94004V8.12114C25.6227 8.37755 25.7246 8.62346 25.9059 8.80477C26.0872 8.98608 26.3331 9.08793 26.5895 9.08793C26.8459 9.08793 27.0918 8.98608 27.2731 8.80477C27.4544 8.62346 27.5563 8.37755 27.5563 8.12114V5.34321C28.0522 4.32129 28.8258 3.45961 29.7885 2.85672C30.7512 2.25384 31.8641 1.93411 33 1.93411C34.1359 1.93411 35.2488 2.25384 36.2115 2.85672C37.1742 3.45961 37.9478 4.32129 38.4437 5.34321V8.12114C38.4437 8.37755 38.5456 8.62346 38.7269 8.80477C38.9082 8.98608 39.1541 9.08793 39.4105 9.08793C39.6669 9.08793 39.9128 8.98608 40.0941 8.80477C40.2754 8.62346 40.3773 8.37755 40.3773 8.12114V5.94004C40.5977 5.91513 40.8193 5.9018 41.0412 5.90008C43.9454 5.9104 46.3598 8.2204 46.4243 11.0486C46.4784 13.4733 44.8426 15.6119 42.4463 16.2487C42.2965 16.2881 42.1584 16.3631 42.0438 16.4672C41.9291 16.5713 41.8412 16.7015 41.7875 16.8468C41.6586 17.1923 41.5671 17.8961 41.3841 19.4249C41.3273 19.907 41.2655 20.424 41.2075 20.8429H24.7925C24.7345 20.4227 24.6727 19.9057 24.6159 19.4249C24.4329 17.9 24.3401 17.1961 24.2125 16.8468C24.1588 16.7015 24.0709 16.5713 23.9562 16.4672C23.8416 16.3631 23.7035 16.2881 23.5538 16.2487C21.1574 15.6119 19.5216 13.4733 19.5757 11.0486ZM22.7984 30.6153C22.1146 30.6153 21.4588 30.3437 20.9753 29.8602C20.4919 29.3767 20.2202 28.7209 20.2202 28.0372C20.2209 27.6669 20.3684 27.312 20.6303 27.0503C20.8923 26.7886 21.2473 26.6414 21.6176 26.6411H23.0098V30.6153H22.7984ZM24.9472 33.2475V26.6411H41.0605V33.2475C41.0605 35.3843 40.2117 37.4335 38.7008 38.9444C37.1899 40.4554 35.1406 41.3042 33.0039 41.3042C30.8671 41.3042 28.8179 40.4554 27.307 38.9444C25.796 37.4335 24.9472 35.3843 24.9472 33.2475ZM33.0039 43.2378C34.451 43.2388 35.8809 42.9233 37.1933 42.3135V45.0992L33 47.1939L28.8105 45.0992V42.3135C30.123 42.9233 31.5528 43.2388 33 43.2378H33.0039ZM11.4082 55.7314C11.4105 54.8762 11.6734 54.042 12.1618 53.34C12.6503 52.638 13.3412 52.1016 14.1423 51.8023L27.787 46.7492L30.8254 48.269L29.5646 48.8903C29.4029 48.9703 29.2667 49.094 29.1715 49.2473C29.0763 49.4005 29.0259 49.5774 29.0258 49.7579V64.0665H17.8535V59.877C17.8535 59.6206 17.7517 59.3747 17.5703 59.1934C17.389 59.0121 17.1431 58.9102 16.8867 58.9102C16.6303 58.9102 16.3844 59.0121 16.2031 59.1934C16.0218 59.3747 15.9199 59.6206 15.9199 59.877V64.0665H11.4082V55.7314ZM54.5918 64.0665H50.0801V59.877C50.0801 59.6206 49.9782 59.3747 49.7969 59.1934C49.6156 59.0121 49.3697 58.9102 49.1133 58.9102C48.8569 58.9102 48.611 59.0121 48.4296 59.1934C48.2483 59.3747 48.1465 59.6206 48.1465 59.877V64.0665H30.9594V50.3598L38.2143 46.7505L51.8577 51.8036C52.6588 52.1029 53.3497 52.6393 53.8382 53.3413C54.3266 54.0433 54.5895 54.8775 54.5918 55.7327V64.0665Z" fill="#0B0A0A"/>
<path d="M34.7187 55.043H33.4297C33.1733 55.043 32.9274 55.1448 32.7461 55.3261C32.5647 55.5074 32.4629 55.7534 32.4629 56.0098C32.4629 56.2662 32.5647 56.5121 32.7461 56.6934C32.9274 56.8747 33.1733 56.9766 33.4297 56.9766H34.7187C34.9752 56.9766 35.2211 56.8747 35.4024 56.6934C35.5837 56.5121 35.6855 56.2662 35.6855 56.0098C35.6855 55.7534 35.5837 55.5074 35.4024 55.3261C35.2211 55.1448 34.9752 55.043 34.7187 55.043Z" fill="#0B0A0A"/>
<path d="M34.7187 60.1992H33.4297C33.1733 60.1992 32.9274 60.3011 32.7461 60.4824C32.5647 60.6637 32.4629 60.9096 32.4629 61.166C32.4629 61.4224 32.5647 61.6683 32.7461 61.8496C32.9274 62.031 33.1733 62.1328 33.4297 62.1328H34.7187C34.9752 62.1328 35.2211 62.031 35.4024 61.8496C35.5837 61.6683 35.6855 61.4224 35.6855 61.166C35.6855 60.9096 35.5837 60.6637 35.4024 60.4824C35.2211 60.3011 34.9752 60.1992 34.7187 60.1992Z" fill="#0B0A0A"/>
</g>
<defs>
<clipPath id="clip0_0_1006">
<rect width="66" height="66" fill="white"/>
</clipPath>
</defs>
</svg>
