<svg width="66" height="66" viewBox="0 0 66 66" fill="none" xmlns="http://www.w3.org/2000/svg">
<g opacity="0.8" clip-path="url(#clip0_0_1010)">
<path d="M42.4205 35.5548H43.4074V41.6921C43.4074 42.2261 43.8401 42.6589 44.3742 42.6589C44.9082 42.6589 45.341 42.2261 45.341 41.6921V35.5548H46.3437C46.8778 35.5548 47.3105 35.1219 47.3105 34.588C47.3105 34.0541 46.8778 33.6212 46.3437 33.6212H42.4205C41.8864 33.6212 41.4537 34.0541 41.4537 34.588C41.4537 35.1219 41.8865 35.5548 42.4205 35.5548ZM38.7323 35.6196C39.2664 35.6196 39.6991 35.1868 39.6991 34.6528C39.6991 34.1189 39.2664 33.686 38.7323 33.686H35.7662C35.2321 33.686 34.7994 34.1189 34.7994 34.6528V41.6921C34.7994 42.2261 35.2321 42.6589 35.7662 42.6589H38.7323C39.2664 42.6589 39.6991 42.2261 39.6991 41.6921C39.6991 41.1582 39.2664 40.7253 38.7323 40.7253H36.733V39.1393H38.5136C39.0476 39.1393 39.4804 38.7064 39.4804 38.1725C39.4804 37.6386 39.0476 37.2057 38.5136 37.2057H36.733V35.6196H38.7323ZM37.1179 32.3788C39.6097 32.3788 41.6368 30.3516 41.6368 27.8599C41.6368 25.3681 39.6097 23.3409 37.1179 23.3409C34.6262 23.3409 32.599 25.3681 32.599 27.8599C32.599 30.3516 34.6262 32.3788 37.1179 32.3788ZM37.1179 25.2746C38.5435 25.2746 39.7033 26.4344 39.7033 27.86C39.7033 29.2856 38.5435 30.4453 37.1179 30.4453C35.6923 30.4453 34.5326 29.2856 34.5326 27.86C34.5326 26.4344 35.6925 25.2746 37.1179 25.2746ZM49.3126 33.7785C48.8655 34.0704 48.7397 34.6695 49.0316 35.1165L51.1428 38.3499L51.1345 41.6897C51.1332 42.2236 51.5651 42.6575 52.0989 42.6589H52.1013C52.6342 42.6589 53.0668 42.2276 53.0681 41.6946L53.0764 38.3513L55.1711 35.1335C55.4624 34.686 55.3358 34.0871 54.8884 33.7959C54.441 33.5048 53.8419 33.6311 53.5508 34.0787L52.1091 36.2932L50.6507 34.0595C50.3586 33.6122 49.7597 33.4865 49.3126 33.7785ZM44.3525 32.3788H44.3561C44.4152 32.3785 45.808 32.3733 46.365 32.3635C48.4954 32.3262 50.0418 30.4764 50.0418 27.9649C50.0418 25.3249 48.5345 23.551 46.2909 23.551H44.3386C43.8124 23.5485 43.3684 23.9937 43.3718 24.5196V24.5248V24.5251V31.3C43.3675 31.8603 43.7584 32.3788 44.3525 32.3788ZM46.291 25.4848C47.9772 25.4848 48.1083 27.3832 48.1083 27.965C48.1083 29.6465 47.2158 30.4148 46.3314 30.4303C46.0961 30.4344 45.6956 30.4377 45.3161 30.4402C45.3135 29.6322 45.3104 28.5246 45.3104 27.9574C45.3104 27.4823 45.3085 26.3263 45.3072 25.4848H46.291ZM66 10.6992C66 8.46734 65.3195 6.32839 64.0317 4.51378C63.723 4.07846 63.1195 3.97573 62.6839 4.28484C62.2483 4.59383 62.1458 5.19737 62.4549 5.63282C63.5091 7.11859 64.0664 8.87043 64.0664 10.6992C64.0664 15.5326 60.1341 19.4648 55.3008 19.4648C50.4674 19.4648 46.5352 15.5326 46.5352 10.6992C46.5352 5.86588 50.4674 1.93359 55.3008 1.93359C56.7528 1.93359 58.1906 2.29569 59.4592 2.98057C59.9293 3.23413 60.5154 3.05895 60.7692 2.58921C61.0229 2.11935 60.8476 1.53282 60.3779 1.27914C58.8279 0.442277 57.0723 0 55.3008 0C52.2394 0 49.4762 1.29448 47.5241 3.36239C43.0355 1.16119 38.0308 0 33 0C14.6894 0 0 14.8162 0 33C0 50.9256 14.7999 66 33 66C50.8912 66 66 51.0136 66 33C66 27.9689 64.8388 22.9644 62.6376 18.4759C64.7055 16.5237 66 13.7606 66 10.6992ZM64.0664 33C64.0664 49.876 49.9358 64.0664 33 64.0664C15.8011 64.0664 1.93359 50.1102 1.93359 33C1.93359 15.7739 15.8776 1.93359 33 1.93359C37.6692 1.93359 42.1385 2.93932 46.3034 4.92074C45.7227 5.82179 45.2736 6.8145 44.9833 7.87308C41.2615 6.0943 37.1463 5.15625 33 5.15625C17.6469 5.15625 5.15625 17.6469 5.15625 33C5.15625 39.5732 7.49925 45.958 11.7535 50.9783C12.1002 51.3873 12.7107 51.4344 13.1161 51.0908C13.5234 50.7456 13.5738 50.1356 13.2286 49.7283C9.26991 45.0569 7.08984 39.116 7.08984 33C7.08984 18.7131 18.7131 7.08984 33 7.08984C37.0407 7.08984 41.0496 8.04556 44.6379 9.85591C44.6161 10.1345 44.6016 10.4151 44.6016 10.6992C44.6016 16.5987 49.4011 21.3984 55.3008 21.3984C55.5849 21.3984 55.8655 21.384 56.1441 21.3621C57.9543 24.9504 58.9102 28.9594 58.9102 33C58.9102 47.2869 47.2869 58.9102 33 58.9102C26.8857 58.9102 20.9462 56.7311 16.2756 52.7746C15.8681 52.4294 15.258 52.4799 14.913 52.8874C14.5678 53.2949 14.6184 53.9049 15.0258 54.2499C20.0453 58.502 26.4286 60.8438 33 60.8438C48.3531 60.8438 60.8438 48.3531 60.8438 33C60.8438 28.8537 59.9057 24.7385 58.1269 21.0167C59.1854 20.7264 60.1782 20.2773 61.0793 19.6966C63.0608 23.8613 64.0664 28.3308 64.0664 33ZM17.1817 40.3224C17.3642 39.3004 16.9042 37.967 15.0662 37.289C14.2071 36.9721 13.4065 36.6273 13.1465 36.5137C12.9923 36.3834 12.9979 36.2053 13.0087 36.1302C13.0246 36.0199 13.106 35.7496 13.5185 35.6253C14.4758 35.3368 15.3714 36.0393 15.4009 36.0629C15.8097 36.4016 16.4157 36.3476 16.7577 35.9405C17.1012 35.5318 17.0485 34.9219 16.6397 34.5783C16.5714 34.5208 14.942 33.1774 12.9609 33.774C11.9504 34.0783 11.2353 34.876 11.0947 35.8555C10.8214 37.7599 12.1461 38.2729 14.3969 39.1031C14.6253 39.1874 15.3643 39.4998 15.2781 39.9826C15.2129 40.3478 14.7599 40.7253 14.1147 40.7253C13.4305 40.7253 12.7728 40.4504 12.3555 39.9898C11.9969 39.5939 11.3854 39.5643 10.9899 39.9227C10.5943 40.2813 10.5641 40.8925 10.9227 41.2883C11.7122 42.1594 12.8755 42.6589 14.1148 42.6589C15.6501 42.6589 16.94 41.6763 17.1817 40.3224ZM58.2602 7.45117L53.8151 11.8964L52.3414 10.4226C51.9637 10.045 51.3516 10.045 50.974 10.4226C50.5965 10.8002 50.5965 11.4123 50.974 11.7898L52.7667 13.5825C53.0469 13.8624 53.4191 14.0168 53.8151 14.0168C54.211 14.0168 54.5833 13.8626 54.8634 13.5825L59.6277 8.81835C60.0052 8.44078 60.0052 7.82861 59.6277 7.45117C59.2501 7.07373 58.638 7.0736 58.2602 7.45117ZM16.9249 32.3788C17.4589 32.3788 17.8917 31.9459 17.8917 31.412V28.7861H19.5561C20.0902 28.7861 20.5229 28.3532 20.5229 27.8193C20.5229 27.2853 20.0902 26.8525 19.5561 26.8525H17.8917V25.3267H19.7831C20.3172 25.3267 20.7499 24.8939 20.7499 24.3599C20.7499 23.826 20.3172 23.3931 19.7831 23.3931H16.9249C16.3908 23.3931 15.9581 23.826 15.9581 24.3599V31.4121C15.9581 31.9459 16.3908 32.3788 16.9249 32.3788ZM27.9727 34.6399V41.6921C27.9727 42.2261 28.4054 42.6589 28.9395 42.6589C29.4735 42.6589 29.9062 42.2261 29.9062 41.6921V39.0661H31.5706C32.1046 39.0661 32.5374 38.6332 32.5374 38.0993C32.5374 37.5653 32.1046 37.1325 31.5706 37.1325H29.9062V35.6067H31.7977C32.3317 35.6067 32.7645 35.1739 32.7645 34.6399C32.7645 34.106 32.3317 33.6731 31.7977 33.6731H28.9395C28.4054 33.6731 27.9727 34.106 27.9727 34.6399ZM26.7711 32.3788C29.2629 32.3788 31.2901 30.3516 31.2901 27.8599C31.2901 25.3681 29.2629 23.3409 26.7711 23.3409C24.2794 23.3409 22.2522 25.3681 22.2522 27.8599C22.2522 30.3516 24.2794 32.3788 26.7711 32.3788ZM26.7711 25.2746C28.1967 25.2746 29.3565 26.4344 29.3565 27.86C29.3565 29.2856 28.1967 30.4453 26.7711 30.4453C25.3455 30.4453 24.1858 29.2856 24.1858 27.86C24.1858 26.4344 25.3455 25.2746 26.7711 25.2746ZM19.0409 42.5957C19.5392 42.7858 20.0983 42.5353 20.2884 42.0363L20.7156 40.9146H23.6669L24.0892 42.0336C24.2792 42.5393 24.8462 42.7814 25.3351 42.5968C25.8346 42.4084 26.0868 41.8504 25.8982 41.3509L23.2548 34.3466C23.2516 34.3378 23.2481 34.329 23.2445 34.3203C23.07 33.8956 22.6606 33.6213 22.2014 33.6213C22.201 33.6213 22.2006 33.6213 22.2002 33.6213C21.7408 33.6217 21.3314 33.8969 21.1574 34.3223C21.1545 34.3295 21.1516 34.3368 21.1489 34.3441L18.4814 41.3482C18.2913 41.8471 18.5419 42.4056 19.0409 42.5957ZM22.198 37.0221L22.9372 38.9809H21.4519L22.198 37.0221Z" fill="#0B0A0A"/>
</g>
<defs>
<clipPath id="clip0_0_1010">
<rect width="66" height="66" fill="white"/>
</clipPath>
</defs>
</svg>
