<svg width="66" height="66" viewBox="0 0 66 66" fill="none" xmlns="http://www.w3.org/2000/svg">
<g opacity="0.8" clip-path="url(#clip0_0_1001)">
<path d="M14.0527 21.2301L15.634 22.7706C16.7614 21.6018 17.9989 20.5566 19.3331 19.6489L18.0816 17.834C16.6239 18.8378 15.2768 19.9792 14.0527 21.2301Z" fill="#0B0A0A"/>
<path d="M6.99805 35.008L9.19805 35.3791C9.6519 32.808 10.5322 30.319 11.7832 28.0229L9.85815 26.9229C8.46973 29.4526 7.49326 32.1752 6.99805 35.008Z" fill="#0B0A0A"/>
<path d="M63.8 38.6922C63.3188 23.2374 51.4524 10.5326 36.0664 8.99219C36.2313 8.57969 36.314 8.1398 36.3 7.6999C36.3 5.87105 34.8289 4.3999 33 4.3999C31.1711 4.3999 29.7 5.87105 29.7 7.6999C29.7 8.12637 29.7827 8.5523 29.9476 8.95137C14.5476 10.4773 2.66729 23.21 2.2 38.6922C1.73271 38.8576 1.30625 39.1187 0.9625 39.4624C0.34375 40.0812 0 40.9335 0 41.7999C0 43.6288 1.47114 45.0999 3.3 45.0999H38.5L34.1688 57.035C33.9625 57.6124 34.2515 58.2312 34.8289 58.4514C35.1039 58.5475 35.4062 58.5336 35.6673 58.41L40.3149 56.21L42.5149 60.8576C42.6938 61.2422 43.0789 61.4898 43.5048 61.4898C43.9452 61.4624 44.3298 61.1874 44.4813 60.7609L48.7298 49.0734L52.9649 60.7609C53.1164 61.1734 53.5015 61.4624 53.9414 61.4898C54.3673 61.4898 54.7524 61.2422 54.9313 60.8576L57.1313 56.21L61.7789 58.41C62.3289 58.6711 62.989 58.4234 63.236 57.8734C63.3601 57.6124 63.3735 57.31 63.2774 57.035L59.0149 45.0999H62.7C64.5289 45.0999 66 43.6288 66 41.7999C66 40.4109 65.1202 39.16 63.8 38.6922ZM31.9 7.6999C31.9 7.09512 32.3952 6.5999 33 6.5999C33.6048 6.5999 34.1 7.09512 34.1 7.6999C34.1 8.30469 33.6048 8.7999 33 8.7999C32.3952 8.7999 31.9 8.30469 31.9 7.6999ZM33 10.9999C48.3726 10.9859 61.0086 23.1413 61.6 38.4999H59.1798C59.3313 37.771 59.4 37.0422 59.4 36.2999C59.4 32.7109 57.6399 29.3422 54.6976 27.2937L55.9625 26.5788C53.5289 22.3023 49.9539 18.7826 45.636 16.4312L44.536 18.3562C48.0702 20.2951 51.0812 23.0859 53.2673 26.4687C47.8226 23.7874 41.2226 26.0288 38.5414 31.4734C37.7985 32.9725 37.414 34.6225 37.414 36.2999C37.414 37.0422 37.4827 37.771 37.6336 38.4999H4.4C4.99136 23.1413 17.6274 10.9859 33 10.9999ZM47.864 45.0725C43.0649 44.5913 39.5586 40.3014 40.0539 35.5023C40.5351 30.7038 44.825 27.1975 49.6235 27.6922C54.4226 28.1874 57.9289 32.4639 57.4336 37.2624C57.0211 41.4014 53.7485 44.66 49.6235 45.0725H47.864ZM3.3 42.8999C2.69521 42.8999 2.2 42.4047 2.2 41.7999C2.2 41.5109 2.32354 41.2225 2.54375 41.0163C2.73604 40.81 3.01104 40.6859 3.3 40.6999H38.3211C38.6235 41.3734 38.9952 42.0062 39.4211 42.5975L39.311 42.8999H3.3ZM43.3399 57.5297L41.8 54.3124C41.539 53.7624 40.8923 53.5288 40.3423 53.7898L37.111 55.3023L41.0298 44.4812C42.7077 45.9937 44.811 46.9562 47.0524 47.2312L43.3399 57.5297ZM57.1173 53.7764C56.5673 53.5148 55.9077 53.7484 55.6601 54.2984L54.1476 57.5163L50.3798 47.0937C52.6211 46.6951 54.6702 45.5951 56.2649 43.9859L60.3625 55.2889L57.1173 53.7764ZM63.4563 42.5835C63.264 42.7898 62.989 42.9139 62.7 42.8999H58.2173L57.8601 41.91C58.0938 41.5249 58.3 41.1124 58.4923 40.6999H62.7C63.3048 40.6999 63.8 41.1951 63.8 41.7999C63.8 42.0889 63.6765 42.3773 63.4563 42.5835Z" fill="#0B0A0A"/>
<path d="M48.8133 29.3564C44.922 29.3564 41.7734 32.505 41.7734 36.3963C41.7734 40.2877 44.922 43.4362 48.8133 43.4362C52.7047 43.4362 55.8532 40.2877 55.8532 36.3963C55.8398 32.505 52.6907 29.3564 48.8133 29.3564ZM48.8133 41.2362C46.146 41.2362 43.9734 39.0642 43.9734 36.3963C43.9734 33.7291 46.146 31.5564 48.8133 31.5564C51.4806 31.5564 53.6532 33.7291 53.6532 36.3963C53.6532 39.0642 51.4806 41.2362 48.8133 41.2362Z" fill="#0B0A0A"/>
</g>
<defs>
<clipPath id="clip0_0_1001">
<rect width="66" height="66" fill="white"/>
</clipPath>
</defs>
</svg>
